<svg width="160" height="46" viewBox="0 0 160 46" fill="none" xmlns="http://www.w3.org/2000/svg">
<path d="M0 0H45.7467V45.7467H0V0Z" fill="white"/>
<path d="M29.2368 42.3212V21.4207H43.0681V25.2012H33.5399V31.8402H41.9308V35.5285H33.5399V38.5407H43.4984V42.3212H29.2368Z" fill="black"/>
<path d="M156.402 42.4793C154.004 42.4793 152.276 41.2806 152.276 37.7123V33.4193H150.52V30.2971H152.276V24.1084H156.011V30.2971H159.05V33.4193H156.011V37.8238C156.011 39.0226 156.402 39.2734 156.987 39.2734C157.6 39.2734 158.046 38.9389 158.297 38.7717L159.719 41.3921C159.134 41.866 158.13 42.4793 156.402 42.4793Z" fill="white"/>
<path d="M145.491 35.12C145.435 33.754 144.766 33.1407 143.511 33.1407C142.09 33.1407 141.337 33.754 140.807 34.2279L138.717 31.9978C139.832 30.9106 141.086 30.0464 143.874 30.0464C146.912 30.0464 149.226 31.6911 149.226 35.4266V42.1728H145.491L145.574 40.5281C144.682 41.8941 143.651 42.4237 142.062 42.4237C139.887 42.4237 137.88 41.448 137.88 38.6882C137.88 36.1514 139.804 35.12 142.731 35.12H145.491ZM145.491 37.3501H142.926C141.978 37.3501 141.56 37.7683 141.56 38.4373C141.56 39.1064 142.118 39.4967 143.177 39.4967C144.71 39.4967 145.491 38.8276 145.491 37.824V37.3501Z" fill="white"/>
<path d="M128.958 42.1728V30.2973H132.721L132.665 32.4438C133.529 30.4924 134.923 30.0464 136.15 30.0464C136.93 30.0464 137.516 30.2694 137.99 30.5203L136.791 33.9492C136.317 33.7261 135.871 33.5868 135.341 33.5868C133.641 33.5868 132.721 34.3673 132.721 36.9041V42.1728H128.958Z" fill="white"/>
<path d="M118.877 42.1728V30.2973H122.641L122.585 32.4438C123.449 30.4924 124.843 30.0464 126.07 30.0464C126.85 30.0464 127.436 30.2694 127.909 30.5203L126.711 33.9492C126.237 33.7261 125.791 33.5868 125.261 33.5868C123.561 33.5868 122.641 34.3673 122.641 36.9041V42.1728H118.877Z" fill="white"/>
<path d="M108.142 37.378C108.505 38.6046 109.508 39.3015 111.209 39.3015C112.575 39.3015 113.606 38.7719 114.192 38.3537L116.338 40.6675C115.195 41.6711 113.746 42.4237 111.265 42.4237C107.027 42.4237 104.295 39.8591 104.295 36.2072C104.295 32.6111 107.167 30.0464 110.846 30.0464C115.112 30.0464 117.425 33.2244 117.147 37.378H108.142ZM108.087 35.2036H113.355C113.188 33.8934 112.352 33.1128 110.874 33.1128C109.397 33.1128 108.393 33.7819 108.087 35.2036Z" fill="white"/>
<path d="M96.5425 42.4236C92.9185 42.4236 90.5768 40.6953 89.4338 38.4372L92.6118 36.5974C93.4481 37.9633 94.5353 38.9669 96.4588 38.9669C98.0757 38.9669 99.1071 38.1585 99.1071 37.0434C99.1071 35.7053 98.0478 35.2314 96.2637 34.4508L95.288 34.0327C92.4724 32.834 90.6047 31.3286 90.6047 28.1506C90.6047 25.2236 92.8348 22.9934 96.3194 22.9934C98.8005 22.9934 100.585 23.8576 101.867 26.1156L98.8284 28.067C98.1593 26.8683 97.4345 26.3944 96.3194 26.3944C95.1765 26.3944 94.4517 27.1192 94.4517 28.067C94.4517 29.2378 95.1765 29.7117 96.8491 30.4365L97.8248 30.8547C101.142 32.2764 103.01 33.726 103.01 36.9876C103.01 40.5001 100.25 42.4236 96.5425 42.4236Z" fill="white"/>
<path d="M84.2052 42.4237C80.4975 42.4237 77.7098 39.8591 77.7098 36.2072C77.7098 32.6111 80.4975 30.0464 84.2052 30.0464C86.5747 30.0464 87.9964 30.9106 89.1951 32.4159L86.5189 34.5903C86.0729 33.8655 85.153 33.3359 84.2052 33.3359C82.5047 33.3359 81.5569 34.5346 81.5569 36.2072C81.5569 37.9356 82.5047 39.1621 84.2052 39.1621C85.4039 39.1621 86.045 38.6046 86.6026 38.0471L89.1394 40.2772C87.9685 41.5874 86.5747 42.4237 84.2052 42.4237Z" fill="white"/>
<path d="M74.0029 28.3179C72.7205 28.3179 71.6055 27.3422 71.6055 25.9484C71.6055 24.5824 72.7205 23.6067 74.0029 23.6067C75.2852 23.6067 76.3724 24.5824 76.3724 25.9484C76.3724 27.3422 75.2852 28.3179 74.0029 28.3179ZM72.1073 42.1727V30.2972H75.8706V42.1727H72.1073Z" fill="white"/>
<path d="M61.8875 42.1728V30.2973H65.6508L65.5951 32.4438C66.4593 30.4924 67.8531 30.0464 69.0797 30.0464C69.8603 30.0464 70.4457 30.2694 70.9196 30.5203L69.7209 33.9492C69.247 33.7261 68.8009 33.5868 68.2713 33.5868C66.5708 33.5868 65.6508 34.3673 65.6508 36.9041V42.1728H61.8875Z" fill="white"/>
<path d="M47.9414 42.1728V30.2973H51.7048L51.6212 32.2487C52.346 30.8269 53.7398 30.0464 55.3845 30.0464C57.9771 30.0464 59.8449 31.942 59.8449 35.3151V42.1728H56.0815V35.566C56.0815 34.2279 55.4403 33.4752 54.1022 33.4752C52.5969 33.4752 51.7048 34.3116 51.7048 35.8169V42.1728H47.9414Z" fill="white"/>
<path d="M15.6825 41.9887V38.4475H25.8003V41.9887H15.6825Z" fill="black"/>
<path d="M5.82581 35.9708V31.9459L9.50666 30.0883L5.82581 28.2307V24.2058L16.0772 29.9507V30.2947L5.82581 35.9708Z" fill="black"/>
</svg>
