<svg width="240" height="91" viewBox="0 0 240 91" fill="none" xmlns="http://www.w3.org/2000/svg">
<path d="M0 0H68.583V68.583H0V0Z" fill="black"/>
<path d="M43.8316 63.4474V32.1135H64.5672V37.7813H50.2827V47.7344H62.8623V53.2639H50.2827V57.7796H65.2124V63.4474H43.8316Z" fill="#FFFAFA"/>
<path d="M234.475 63.684C230.881 63.684 228.29 61.8869 228.29 56.5375V50.1014H225.657V45.4206H228.29V36.1426H233.89V45.4206H238.446V50.1014H233.89V56.7046C233.89 58.5017 234.475 58.8778 235.353 58.8778C236.273 58.8778 236.941 58.3763 237.317 58.1256L239.449 62.0541C238.571 62.7646 237.067 63.684 234.475 63.684Z" fill="black"/>
<path d="M218.118 52.651C218.034 50.6031 217.031 49.6837 215.151 49.6837C213.019 49.6837 211.891 50.6031 211.097 51.3136L207.962 47.9702C209.634 46.3403 211.515 45.0447 215.694 45.0447C220.249 45.0447 223.718 47.5105 223.718 53.1107V63.2245H218.118L218.243 60.7588C216.906 62.8066 215.36 63.6007 212.977 63.6007C209.718 63.6007 206.708 62.1379 206.708 58.0004C206.708 54.1973 209.592 52.651 213.98 52.651H218.118ZM218.118 55.9944H214.273C212.852 55.9944 212.225 56.6213 212.225 57.6243C212.225 58.6273 213.061 59.2124 214.649 59.2124C216.948 59.2124 218.118 58.2094 218.118 56.7049V55.9944Z" fill="black"/>
<path d="M193.332 63.2245V45.4208H198.974L198.89 48.6389C200.186 45.7134 202.275 45.0447 204.114 45.0447C205.284 45.0447 206.162 45.379 206.873 45.7552L205.076 50.8957C204.365 50.5613 203.696 50.3524 202.902 50.3524C200.353 50.3524 198.974 51.5226 198.974 55.3257V63.2245H193.332Z" fill="black"/>
<path d="M178.219 63.2245V45.4208H183.861L183.778 48.6389C185.073 45.7134 187.163 45.0447 189.002 45.0447C190.172 45.0447 191.05 45.379 191.76 45.7552L189.963 50.8957C189.253 50.5613 188.584 50.3524 187.79 50.3524C185.241 50.3524 183.861 51.5226 183.861 55.3257V63.2245H178.219Z" fill="black"/>
<path d="M162.126 56.0362C162.669 57.8751 164.173 58.9199 166.723 58.9199C168.771 58.9199 170.317 58.1258 171.195 57.4989L174.413 60.9677C172.699 62.4723 170.526 63.6007 166.806 63.6007C160.454 63.6007 156.358 59.7557 156.358 54.2809C156.358 48.8896 160.663 45.0447 166.18 45.0447C172.574 45.0447 176.043 49.8091 175.625 56.0362H162.126ZM162.042 52.7763H169.941C169.69 50.8121 168.436 49.6419 166.221 49.6419C164.006 49.6419 162.502 50.6449 162.042 52.7763Z" fill="black"/>
<path d="M144.735 63.6008C139.302 63.6008 135.792 61.0096 134.078 57.6244L138.842 54.8661C140.096 56.9139 141.726 58.4184 144.61 58.4184C147.034 58.4184 148.58 57.2065 148.58 55.5347C148.58 53.5287 146.992 52.8182 144.317 51.648L142.855 51.0211C138.634 49.224 135.833 46.9672 135.833 42.2029C135.833 37.8146 139.177 34.4712 144.401 34.4712C148.12 34.4712 150.795 35.7668 152.718 39.152L148.162 42.0775C147.159 40.2804 146.073 39.5699 144.401 39.5699C142.687 39.5699 141.601 40.6565 141.601 42.0775C141.601 43.8328 142.687 44.5432 145.195 45.6299L146.658 46.2568C151.631 48.3882 154.431 50.5614 154.431 55.4512C154.431 60.7171 150.294 63.6008 144.735 63.6008Z" fill="black"/>
<path d="M126.239 63.6009C120.681 63.6009 116.502 59.756 116.502 54.2811C116.502 48.8899 120.681 45.0449 126.239 45.0449C129.792 45.0449 131.923 46.3405 133.72 48.5973L129.708 51.8571C129.04 50.7705 127.66 49.9765 126.239 49.9765C123.69 49.9765 122.269 51.7736 122.269 54.2811C122.269 56.8723 123.69 58.7112 126.239 58.7112C128.037 58.7112 128.998 57.8753 129.834 57.0394L133.637 60.3829C131.881 62.3471 129.792 63.6009 126.239 63.6009Z" fill="black"/>
<path d="M110.944 42.4536C109.022 42.4536 107.35 40.9909 107.35 38.9012C107.35 36.8534 109.022 35.3906 110.944 35.3906C112.867 35.3906 114.497 36.8534 114.497 38.9012C114.497 40.9909 112.867 42.4536 110.944 42.4536ZM108.102 63.2246V45.4209H113.744V63.2246H108.102Z" fill="black"/>
<path d="M92.781 63.2248V45.4211H98.423L98.3394 48.6391C99.635 45.7136 101.725 45.0449 103.564 45.0449C104.734 45.0449 105.611 45.3793 106.322 45.7554L104.525 50.8959C103.814 50.5616 103.146 50.3526 102.352 50.3526C99.8022 50.3526 98.423 51.5228 98.423 55.3259V63.2248H92.781Z" fill="black"/>
<path d="M71.8732 63.2248V45.4211H77.5153L77.3899 48.3466C78.4765 46.2151 80.5661 45.0449 83.0319 45.0449C86.9186 45.0449 89.7187 47.8868 89.7187 52.9438V63.2248H84.0767V53.3199C84.0767 51.3138 83.1155 50.1854 81.1094 50.1854C78.8526 50.1854 77.5153 51.4392 77.5153 53.696V63.2248H71.8732Z" fill="black"/>
<path d="M23.5111 62.9489V57.6399H38.6796V62.9489H23.5111Z" fill="#FFFAFA"/>
<path d="M8.73401 53.927V47.893L14.2523 45.108L8.73401 42.3231V36.2891L24.1027 44.9017V45.4175L8.73401 53.927Z" fill="#FFFAFA"/>
<path d="M229.931 86.4813C229.931 86.1446 230.013 85.9079 230.177 85.7714C230.34 85.6349 230.536 85.5667 230.764 85.5667C231 85.5667 231.201 85.6349 231.364 85.7714C231.537 85.9079 231.624 86.1446 231.624 86.4813C231.624 86.8089 231.537 87.0456 231.364 87.1912C231.201 87.3368 231 87.4096 230.764 87.4096C230.536 87.4096 230.34 87.3368 230.177 87.1912C230.013 87.0456 229.931 86.8089 229.931 86.4813Z" fill="black"/>
<path d="M225.601 79.7651C226.475 79.7651 227.135 79.979 227.581 80.4068C228.027 80.8254 228.25 81.508 228.25 82.4545V87.2189H227.062V82.5364C227.062 81.9448 226.93 81.5034 226.666 81.2122C226.402 80.921 225.988 80.7754 225.424 80.7754C224.614 80.7754 224.054 81.0029 223.744 81.4579C223.435 81.913 223.28 82.5683 223.28 83.4238V87.2189H222.079V79.9017H223.048L223.226 80.8982H223.294C223.458 80.6434 223.658 80.4341 223.895 80.2702C224.14 80.0973 224.409 79.9699 224.7 79.888C224.991 79.8061 225.292 79.7651 225.601 79.7651Z" fill="black"/>
<path d="M216.683 79.7651C217.166 79.7651 217.598 79.8561 217.98 80.0382C218.372 80.2202 218.704 80.4978 218.977 80.8709H219.045L219.209 79.9017H220.165V87.3418C220.165 88.0335 220.046 88.6114 219.81 89.0756C219.573 89.5488 219.213 89.9038 218.731 90.1404C218.249 90.377 217.634 90.4953 216.888 90.4953C216.36 90.4953 215.873 90.4544 215.427 90.3725C214.991 90.2996 214.599 90.1859 214.253 90.0312V88.9254C214.49 89.0437 214.749 89.1438 215.032 89.2257C215.314 89.3167 215.619 89.385 215.946 89.4305C216.274 89.476 216.611 89.4988 216.956 89.4988C217.584 89.4988 218.076 89.3122 218.431 88.939C218.795 88.575 218.977 88.0744 218.977 87.4374V87.1507C218.977 87.0415 218.981 86.8867 218.99 86.6865C219 86.4772 219.009 86.3316 219.018 86.2497H218.963C218.708 86.6228 218.39 86.9004 218.008 87.0824C217.634 87.2644 217.198 87.3554 216.697 87.3554C215.75 87.3554 215.009 87.0233 214.472 86.3589C213.944 85.6945 213.68 84.7662 213.68 83.5739C213.68 82.7912 213.798 82.1178 214.035 81.5535C214.281 80.9801 214.627 80.5387 215.072 80.2293C215.518 79.9199 216.055 79.7651 216.683 79.7651ZM216.847 80.7754C216.438 80.7754 216.087 80.8846 215.796 81.103C215.514 81.3214 215.295 81.64 215.141 82.0586C214.995 82.4773 214.922 82.9869 214.922 83.5876C214.922 84.4886 215.086 85.1803 215.414 85.6626C215.75 86.1359 216.237 86.3725 216.874 86.3725C217.248 86.3725 217.566 86.327 217.83 86.236C218.094 86.1359 218.312 85.9857 218.485 85.7855C218.658 85.5762 218.786 85.3123 218.868 84.9937C218.95 84.6752 218.99 84.2975 218.99 83.8606V83.5739C218.99 82.9096 218.913 82.3726 218.758 81.963C218.613 81.5535 218.381 81.2532 218.062 81.062C217.744 80.8709 217.339 80.7754 216.847 80.7754Z" fill="black"/>
<path d="M212.181 79.9014V87.2187H210.98V79.9014H212.181ZM211.594 77.1575C211.776 77.1575 211.935 77.2212 212.072 77.3486C212.217 77.4669 212.29 77.658 212.29 77.922C212.29 78.1768 212.217 78.3679 212.072 78.4953C211.935 78.6227 211.776 78.6865 211.594 78.6865C211.394 78.6865 211.225 78.6227 211.089 78.4953C210.952 78.3679 210.884 78.1768 210.884 77.922C210.884 77.658 210.952 77.4669 211.089 77.3486C211.225 77.2212 211.394 77.1575 211.594 77.1575Z" fill="black"/>
<path d="M209.621 85.1985C209.621 85.6717 209.503 86.0676 209.266 86.3862C209.029 86.7047 208.693 86.9459 208.256 87.1097C207.819 87.2735 207.3 87.3554 206.7 87.3554C206.19 87.3554 205.749 87.3145 205.375 87.2326C205.011 87.1507 204.688 87.0369 204.406 86.8913V85.7992C204.697 85.9448 205.048 86.0813 205.457 86.2087C205.876 86.327 206.299 86.3862 206.727 86.3862C207.337 86.3862 207.778 86.2906 208.051 86.0995C208.324 85.8993 208.461 85.6353 208.461 85.3077C208.461 85.1257 208.411 84.9619 208.31 84.8162C208.21 84.6706 208.028 84.525 207.764 84.3794C207.51 84.2338 207.141 84.07 206.659 83.8879C206.185 83.7059 205.78 83.5239 205.444 83.3419C205.107 83.1598 204.848 82.9414 204.666 82.6866C204.483 82.4318 204.392 82.1041 204.392 81.7037C204.392 81.0848 204.643 80.607 205.143 80.2702C205.653 79.9335 206.317 79.7651 207.136 79.7651C207.582 79.7651 207.996 79.8106 208.379 79.9017C208.77 79.9836 209.134 80.1019 209.471 80.2566L209.061 81.2122C208.861 81.1212 208.647 81.0438 208.42 80.9801C208.201 80.9073 207.978 80.8527 207.751 80.8163C207.523 80.7708 207.291 80.7481 207.055 80.7481C206.563 80.7481 206.185 80.83 205.921 80.9938C205.667 81.1485 205.539 81.3624 205.539 81.6354C205.539 81.8356 205.598 82.0086 205.717 82.1542C205.835 82.2907 206.031 82.4272 206.304 82.5637C206.586 82.6911 206.959 82.8459 207.423 83.0279C207.887 83.2008 208.283 83.3783 208.611 83.5603C208.938 83.7423 209.189 83.9653 209.362 84.2292C209.535 84.4841 209.621 84.8071 209.621 85.1985Z" fill="black"/>
<path d="M200.386 79.7651C201.014 79.7651 201.551 79.9017 201.997 80.1747C202.452 80.4477 202.798 80.8345 203.035 81.3351C203.28 81.8265 203.403 82.4045 203.403 83.0688V83.7924H198.393C198.411 84.6206 198.621 85.2531 199.021 85.6899C199.431 86.1177 200 86.3316 200.728 86.3316C201.192 86.3316 201.601 86.2906 201.956 86.2087C202.32 86.1177 202.693 85.9903 203.076 85.8265V86.8776C202.703 87.0415 202.334 87.1598 201.97 87.2326C201.606 87.3145 201.174 87.3554 200.673 87.3554C199.981 87.3554 199.367 87.2144 198.83 86.9322C198.302 86.6501 197.888 86.2315 197.588 85.6763C197.297 85.112 197.151 84.4249 197.151 83.6149C197.151 82.814 197.283 82.1269 197.547 81.5535C197.82 80.9801 198.198 80.5387 198.68 80.2293C199.171 79.9199 199.74 79.7651 200.386 79.7651ZM200.373 80.7481C199.799 80.7481 199.344 80.9346 199.008 81.3078C198.68 81.6718 198.484 82.1815 198.421 82.8368H202.147C202.147 82.4181 202.084 82.0541 201.956 81.7446C201.829 81.4352 201.633 81.194 201.369 81.0211C201.114 80.8391 200.782 80.7481 200.373 80.7481Z" fill="black"/>
<path d="M195.971 82.2495C195.971 83.3416 195.766 84.2563 195.356 84.9935C194.956 85.7307 194.378 86.2858 193.622 86.659C192.867 87.0321 191.952 87.2187 190.878 87.2187H188.162V77.4714H191.165C192.148 77.4714 192.999 77.6535 193.718 78.0175C194.437 78.3815 194.992 78.9185 195.383 79.6284C195.775 80.3292 195.971 81.2029 195.971 82.2495ZM194.674 82.2905C194.674 81.4259 194.528 80.716 194.237 80.1608C193.955 79.6056 193.536 79.1961 192.981 78.9322C192.435 78.6591 191.77 78.5226 190.988 78.5226H189.39V86.1675H190.715C192.034 86.1675 193.022 85.8444 193.677 85.1983C194.341 84.543 194.674 83.5737 194.674 82.2905Z" fill="black"/>
<path d="M177.953 79.3691C177.953 79.6785 177.944 79.9697 177.926 80.2428C177.917 80.5067 177.903 80.716 177.885 80.8707H177.953C178.163 80.5613 178.449 80.3019 178.813 80.0926C179.177 79.8833 179.646 79.7786 180.219 79.7786C181.13 79.7786 181.858 80.0971 182.404 80.7342C182.959 81.3622 183.236 82.3042 183.236 83.5601C183.236 84.3974 183.109 85.0982 182.854 85.6625C182.608 86.2267 182.258 86.6499 181.803 86.9321C181.348 87.2142 180.82 87.3553 180.219 87.3553C179.646 87.3553 179.177 87.2506 178.813 87.0413C178.449 86.832 178.163 86.5817 177.953 86.2904H177.858L177.612 87.2187H176.752V76.8435H177.953V79.3691ZM180.015 80.7752C179.496 80.7752 179.086 80.8753 178.786 81.0755C178.486 81.2666 178.272 81.567 178.144 81.9765C178.017 82.377 177.953 82.8912 177.953 83.5192V83.5738C177.953 84.4748 178.099 85.1665 178.39 85.6488C178.69 86.1221 179.241 86.3587 180.042 86.3587C180.697 86.3587 181.184 86.1175 181.503 85.6352C181.83 85.1528 181.994 84.4566 181.994 83.5465C181.994 82.6272 181.83 81.9356 181.503 81.4714C181.184 81.0073 180.688 80.7752 180.015 80.7752Z" fill="black"/>
<path d="M172.282 79.7651C172.91 79.7651 173.447 79.9017 173.892 80.1747C174.348 80.4477 174.693 80.8345 174.93 81.3351C175.176 81.8265 175.299 82.4045 175.299 83.0688V83.7924H170.288C170.307 84.6206 170.516 85.2531 170.916 85.6899C171.326 86.1177 171.895 86.3316 172.623 86.3316C173.087 86.3316 173.497 86.2906 173.852 86.2087C174.216 86.1177 174.589 85.9903 174.971 85.8265V86.8776C174.598 87.0415 174.229 87.1598 173.865 87.2326C173.501 87.3145 173.069 87.3554 172.568 87.3554C171.877 87.3554 171.262 87.2144 170.725 86.9322C170.197 86.6501 169.783 86.2315 169.483 85.6763C169.192 85.112 169.046 84.4249 169.046 83.6149C169.046 82.814 169.178 82.1269 169.442 81.5535C169.715 80.9801 170.093 80.5387 170.575 80.2293C171.067 79.9199 171.635 79.7651 172.282 79.7651ZM172.268 80.7481C171.695 80.7481 171.24 80.9346 170.903 81.3078C170.575 81.6718 170.379 82.1815 170.316 82.8368H174.043C174.043 82.4181 173.979 82.0541 173.852 81.7446C173.724 81.4352 173.528 81.194 173.264 81.0211C173.01 80.8391 172.677 80.7481 172.268 80.7481Z" fill="black"/>
<path d="M168.798 77.4714L166.204 87.2187H164.962L163.065 80.8297C163.01 80.6386 162.955 80.4429 162.901 80.2427C162.846 80.0425 162.796 79.8514 162.751 79.6693C162.705 79.4873 162.664 79.3326 162.628 79.2052C162.6 79.0687 162.582 78.9686 162.573 78.9049C162.564 78.9686 162.546 79.0687 162.519 79.2052C162.5 79.3326 162.468 79.4873 162.423 79.6693C162.377 79.8514 162.327 80.047 162.273 80.2564C162.227 80.4566 162.173 80.6614 162.109 80.8707L160.266 87.2187H159.024L156.444 77.4714H157.727L159.242 83.4235C159.297 83.6329 159.347 83.8422 159.392 84.0515C159.438 84.2517 159.479 84.452 159.515 84.6522C159.561 84.8433 159.597 85.0299 159.624 85.2119C159.652 85.3939 159.679 85.5714 159.706 85.7443C159.734 85.5623 159.761 85.3757 159.788 85.1846C159.825 84.9935 159.866 84.7978 159.911 84.5976C159.957 84.3883 160.007 84.1789 160.061 83.9696C160.116 83.7603 160.17 83.5555 160.225 83.3553L161.945 77.4714H163.215L165.003 83.3962C165.067 83.6056 165.126 83.8194 165.181 84.0379C165.235 84.2472 165.285 84.452 165.331 84.6522C165.376 84.8524 165.413 85.0481 165.44 85.2392C165.476 85.4212 165.508 85.5896 165.536 85.7443C165.563 85.5168 165.599 85.2802 165.645 85.0344C165.69 84.7796 165.745 84.5157 165.809 84.2426C165.872 83.9696 165.941 83.692 166.013 83.4099L167.515 77.4714H168.798Z" fill="black"/>
<path d="M147.584 77.321C148.075 77.321 148.494 77.4075 148.84 77.5804C149.195 77.7442 149.468 77.9809 149.659 78.2903C149.85 78.5997 149.946 78.9774 149.946 79.4234C149.946 79.9968 149.759 80.4837 149.386 80.8841C149.022 81.2846 148.558 81.6486 147.993 81.9763L150.628 84.5155C150.865 84.2333 151.056 83.9102 151.202 83.5462C151.356 83.173 151.484 82.7726 151.584 82.3448H152.799C152.653 82.9273 152.471 83.4688 152.253 83.9694C152.034 84.4699 151.752 84.9068 151.406 85.2799L153.4 87.2185H151.775L150.587 86.0717C150.369 86.2629 150.141 86.4403 149.905 86.6042C149.677 86.7589 149.427 86.8908 149.154 87.0001C148.881 87.1093 148.585 87.1957 148.266 87.2594C147.957 87.3231 147.611 87.355 147.229 87.355C146.601 87.355 146.055 87.2549 145.591 87.0547C145.136 86.8453 144.781 86.5404 144.526 86.14C144.28 85.7396 144.157 85.2526 144.157 84.6793C144.157 84.2151 144.239 83.8147 144.403 83.4779C144.576 83.1412 144.822 82.8409 145.14 82.5769C145.459 82.313 145.832 82.0582 146.26 81.8124C146.069 81.594 145.882 81.3665 145.7 81.1299C145.518 80.8932 145.368 80.6384 145.249 80.3654C145.131 80.0832 145.072 79.7783 145.072 79.4507C145.072 79.0047 145.172 78.6225 145.372 78.304C145.573 77.9854 145.859 77.7442 146.232 77.5804C146.615 77.4075 147.065 77.321 147.584 77.321ZM146.983 82.5633C146.656 82.7544 146.373 82.9501 146.137 83.1503C145.909 83.3414 145.732 83.5553 145.604 83.7919C145.477 84.0285 145.413 84.3107 145.413 84.6383C145.413 85.1389 145.582 85.5393 145.918 85.8397C146.255 86.14 146.706 86.2902 147.27 86.2902C147.852 86.2902 148.353 86.1946 148.772 86.0035C149.19 85.8124 149.541 85.5848 149.823 85.3209L146.983 82.5633ZM147.543 78.304C147.161 78.304 146.847 78.4041 146.601 78.6043C146.364 78.8045 146.246 79.0821 146.246 79.437C146.246 79.7647 146.333 80.0696 146.505 80.3517C146.678 80.6247 146.929 80.9296 147.256 81.2664C147.793 80.9569 148.175 80.6657 148.403 80.3927C148.64 80.1105 148.758 79.7874 148.758 79.4234C148.758 79.0958 148.649 78.8273 148.43 78.6179C148.212 78.4086 147.916 78.304 147.543 78.304Z" fill="black"/>
<path d="M139.258 86.3722C139.44 86.3722 139.627 86.3585 139.818 86.3312C140.009 86.2948 140.164 86.2584 140.282 86.222V87.1367C140.154 87.2004 139.972 87.2504 139.736 87.2869C139.499 87.3324 139.272 87.3551 139.053 87.3551C138.671 87.3551 138.316 87.2914 137.988 87.164C137.67 87.0275 137.41 86.7954 137.21 86.4678C137.01 86.1401 136.91 85.6805 136.91 85.0889V80.8296H135.872V80.2563L136.924 79.7785L137.401 78.2222H138.111V79.9013H140.227V80.8296H138.111V85.0616C138.111 85.5076 138.216 85.8398 138.425 86.0582C138.644 86.2675 138.921 86.3722 139.258 86.3722Z" fill="black"/>
<path d="M132.307 79.7651C133.181 79.7651 133.841 79.979 134.287 80.4068C134.733 80.8254 134.956 81.508 134.956 82.4545V87.2189H133.768V82.5364C133.768 81.9448 133.636 81.5034 133.372 81.2122C133.108 80.921 132.694 80.7754 132.13 80.7754C131.32 80.7754 130.76 81.0029 130.45 81.4579C130.141 81.913 129.986 82.5683 129.986 83.4238V87.2189H128.785V79.9017H129.754L129.932 80.8982H130C130.164 80.6434 130.364 80.4341 130.601 80.2702C130.846 80.0973 131.115 79.9699 131.406 79.888C131.697 79.8061 131.998 79.7651 132.307 79.7651Z" fill="black"/>
<path d="M124.315 79.7651C124.943 79.7651 125.48 79.9017 125.926 80.1747C126.381 80.4477 126.726 80.8345 126.963 81.3351C127.209 81.8265 127.332 82.4045 127.332 83.0688V83.7924H122.322C122.34 84.6206 122.549 85.2531 122.949 85.6899C123.359 86.1177 123.928 86.3316 124.656 86.3316C125.12 86.3316 125.53 86.2906 125.885 86.2087C126.249 86.1177 126.622 85.9903 127.004 85.8265V86.8776C126.631 87.0415 126.262 87.1598 125.898 87.2326C125.534 87.3145 125.102 87.3554 124.601 87.3554C123.91 87.3554 123.295 87.2144 122.758 86.9322C122.231 86.6501 121.816 86.2315 121.516 85.6763C121.225 85.112 121.079 84.4249 121.079 83.6149C121.079 82.814 121.211 82.1269 121.475 81.5535C121.748 80.9801 122.126 80.5387 122.608 80.2293C123.1 79.9199 123.668 79.7651 124.315 79.7651ZM124.301 80.7481C123.728 80.7481 123.273 80.9346 122.936 81.3078C122.608 81.6718 122.413 82.1815 122.349 82.8368H126.076C126.076 82.4181 126.012 82.0541 125.885 81.7446C125.757 81.4352 125.562 81.194 125.298 81.0211C125.043 80.8391 124.711 80.7481 124.301 80.7481Z" fill="black"/>
<path d="M117.167 79.7651C117.995 79.7651 118.614 79.979 119.024 80.4068C119.433 80.8254 119.638 81.508 119.638 82.4545V87.2189H118.45V82.5091C118.45 81.9357 118.328 81.5034 118.082 81.2122C117.845 80.921 117.472 80.7754 116.962 80.7754C116.253 80.7754 115.743 80.9801 115.433 81.3897C115.133 81.7992 114.983 82.3954 114.983 83.178V87.2189H113.795V82.5091C113.795 82.1269 113.741 81.8083 113.631 81.5535C113.522 81.2896 113.358 81.0939 113.14 80.9665C112.922 80.8391 112.639 80.7754 112.294 80.7754C111.802 80.7754 111.415 80.88 111.133 81.0893C110.851 81.2896 110.646 81.5854 110.519 81.9767C110.401 82.368 110.341 82.8504 110.341 83.4238V87.2189H109.14V79.9017H110.109L110.287 80.8982H110.355C110.51 80.6434 110.696 80.4341 110.915 80.2702C111.142 80.0973 111.393 79.9699 111.666 79.888C111.939 79.8061 112.221 79.7651 112.512 79.7651C113.076 79.7651 113.545 79.8652 113.918 80.0655C114.3 80.2657 114.578 80.5751 114.751 80.9938H114.819C115.065 80.5751 115.397 80.2657 115.816 80.0655C116.243 79.8652 116.694 79.7651 117.167 79.7651Z" fill="black"/>
<path d="M104.632 79.7651C105.533 79.7651 106.256 80.0791 106.802 80.7071C107.358 81.3351 107.635 82.2816 107.635 83.5466C107.635 84.3748 107.508 85.0756 107.253 85.649C107.007 86.2133 106.657 86.641 106.202 86.9322C105.756 87.2144 105.228 87.3554 104.618 87.3554C104.245 87.3554 103.913 87.3054 103.622 87.2053C103.33 87.1052 103.08 86.9777 102.871 86.823C102.67 86.6592 102.498 86.4817 102.352 86.2906H102.27C102.288 86.4453 102.306 86.641 102.325 86.8776C102.343 87.1143 102.352 87.319 102.352 87.492V90.4953H101.151V79.9017H102.133L102.297 80.8982H102.352C102.498 80.6889 102.67 80.4978 102.871 80.3249C103.08 80.1519 103.326 80.0154 103.608 79.9153C103.899 79.8152 104.24 79.7651 104.632 79.7651ZM104.413 80.7754C103.922 80.7754 103.526 80.8709 103.226 81.062C102.925 81.2441 102.707 81.5216 102.57 81.8948C102.434 82.2679 102.361 82.7412 102.352 83.3146V83.5466C102.352 84.1473 102.416 84.657 102.543 85.0756C102.67 85.4943 102.884 85.8128 103.185 86.0312C103.494 86.2497 103.913 86.3589 104.441 86.3589C104.887 86.3589 105.251 86.236 105.533 85.9903C105.824 85.7446 106.038 85.4124 106.174 84.9937C106.32 84.566 106.393 84.0791 106.393 83.533C106.393 82.6957 106.229 82.0268 105.901 81.5262C105.583 81.0256 105.087 80.7754 104.413 80.7754Z" fill="black"/>
<path d="M99.6562 83.5466C99.6562 84.1564 99.5742 84.6979 99.4104 85.1712C99.2557 85.6353 99.0282 86.0312 98.7278 86.3589C98.4366 86.6865 98.0771 86.9368 97.6494 87.1097C97.2307 87.2735 96.762 87.3554 96.2433 87.3554C95.7609 87.3554 95.3149 87.2735 94.9054 87.1097C94.4958 86.9368 94.1409 86.6865 93.8406 86.3589C93.5402 86.0312 93.3036 85.6353 93.1307 85.1712C92.9669 84.6979 92.8849 84.1564 92.8849 83.5466C92.8849 82.7366 93.0215 82.0541 93.2945 81.4989C93.5675 80.9346 93.9589 80.5069 94.4685 80.2156C94.9782 79.9153 95.5834 79.7651 96.2842 79.7651C96.9486 79.7651 97.5311 79.9153 98.0316 80.2156C98.5413 80.5069 98.9372 80.9346 99.2193 81.4989C99.5105 82.0541 99.6562 82.7366 99.6562 83.5466ZM94.1272 83.5466C94.1272 84.12 94.2001 84.6206 94.3457 85.0483C94.5004 85.467 94.737 85.7901 95.0556 86.0176C95.3741 86.2451 95.7791 86.3589 96.2706 86.3589C96.762 86.3589 97.167 86.2451 97.4856 86.0176C97.8041 85.7901 98.0362 85.467 98.1818 85.0483C98.3365 84.6206 98.4139 84.12 98.4139 83.5466C98.4139 82.9642 98.3365 82.4682 98.1818 82.0586C98.0271 81.6491 97.7904 81.3351 97.4719 81.1166C97.1625 80.8891 96.7575 80.7754 96.2569 80.7754C95.5106 80.7754 94.9691 81.0211 94.6324 81.5125C94.2956 82.004 94.1272 82.682 94.1272 83.5466Z" fill="black"/>
<path d="M91.3858 87.2187H90.1845V76.8435H91.3858V87.2187Z" fill="black"/>
<path d="M85.7143 79.7651C86.3422 79.7651 86.8792 79.9017 87.3252 80.1747C87.7802 80.4477 88.126 80.8345 88.3627 81.3351C88.6084 81.8265 88.7313 82.4045 88.7313 83.0688V83.7924H83.7211C83.7393 84.6206 83.9486 85.2531 84.3491 85.6899C84.7586 86.1177 85.3275 86.3316 86.0556 86.3316C86.5197 86.3316 86.9293 86.2906 87.2842 86.2087C87.6482 86.1177 88.0214 85.9903 88.4036 85.8265V86.8776C88.0305 87.0415 87.6619 87.1598 87.2979 87.2326C86.9338 87.3145 86.5015 87.3554 86.0009 87.3554C85.3093 87.3554 84.6949 87.2144 84.158 86.9322C83.6301 86.6501 83.216 86.2315 82.9157 85.6763C82.6244 85.112 82.4788 84.4249 82.4788 83.6149C82.4788 82.814 82.6108 82.1269 82.8747 81.5535C83.1478 80.9801 83.5254 80.5387 84.0078 80.2293C84.4993 79.9199 85.0681 79.7651 85.7143 79.7651ZM85.7006 80.7481C85.1272 80.7481 84.6722 80.9346 84.3354 81.3078C84.0078 81.6718 83.8121 82.1815 83.7484 82.8368H87.4753C87.4753 82.4181 87.4116 82.0541 87.2842 81.7446C87.1568 81.4352 86.9611 81.194 86.6972 81.0211C86.4423 80.8391 86.1102 80.7481 85.7006 80.7481Z" fill="black"/>
<path d="M77.9762 87.2189L75.205 79.9016H76.4882L78.0445 84.2155C78.1173 84.4158 78.1947 84.6387 78.2766 84.8845C78.3585 85.1302 78.4313 85.3668 78.495 85.5943C78.5587 85.8128 78.6042 85.9993 78.6315 86.1541H78.6861C78.7225 85.9993 78.7726 85.8082 78.8363 85.5807C78.9091 85.3532 78.9865 85.1165 79.0684 84.8708C79.1594 84.6251 79.2367 84.4067 79.3004 84.2155L80.8567 79.9016H82.14L79.3551 87.2189H77.9762Z" fill="black"/>
<path d="M72.1617 79.7651C72.7897 79.7651 73.3267 79.9017 73.7726 80.1747C74.2277 80.4477 74.5735 80.8345 74.8102 81.3351C75.0559 81.8265 75.1788 82.4045 75.1788 83.0688V83.7924H70.1686C70.1868 84.6206 70.3961 85.2531 70.7966 85.6899C71.2061 86.1177 71.7749 86.3316 72.503 86.3316C72.9672 86.3316 73.3767 86.2906 73.7317 86.2087C74.0957 86.1177 74.4689 85.9903 74.8511 85.8265V86.8776C74.478 87.0415 74.1094 87.1598 73.7453 87.2326C73.3813 87.3145 72.949 87.3554 72.4484 87.3554C71.7567 87.3554 71.1424 87.2144 70.6055 86.9322C70.0776 86.6501 69.6635 86.2315 69.3632 85.6763C69.0719 85.112 68.9263 84.4249 68.9263 83.6149C68.9263 82.814 69.0583 82.1269 69.3222 81.5535C69.5952 80.9801 69.9729 80.5387 70.4553 80.2293C70.9467 79.9199 71.5156 79.7651 72.1617 79.7651ZM72.1481 80.7481C71.5747 80.7481 71.1197 80.9346 70.7829 81.3078C70.4553 81.6718 70.2596 82.1815 70.1959 82.8368H73.9228C73.9228 82.4181 73.8591 82.0541 73.7317 81.7446C73.6043 81.4352 73.4086 81.194 73.1447 81.0211C72.8898 80.8391 72.5576 80.7481 72.1481 80.7481Z" fill="black"/>
<path d="M67.7459 82.2495C67.7459 83.3416 67.5411 84.2563 67.1315 84.9935C66.7311 85.7307 66.1532 86.2858 65.3978 86.659C64.6424 87.0321 63.7277 87.2187 62.6538 87.2187H59.9371V77.4714H62.9405C63.9234 77.4714 64.7744 77.6535 65.4933 78.0175C66.2123 78.3815 66.7675 78.9185 67.1588 79.6284C67.5502 80.3292 67.7459 81.2029 67.7459 82.2495ZM66.449 82.2905C66.449 81.4259 66.3033 80.716 66.0121 80.1608C65.73 79.6056 65.3113 79.1961 64.7562 78.9322C64.2101 78.6591 63.5457 78.5226 62.763 78.5226H61.1658V86.1675H62.49C63.8096 86.1675 64.7971 85.8444 65.4524 85.1983C66.1168 84.543 66.449 83.5737 66.449 82.2905Z" fill="black"/>
<path d="M51.1211 87.3553C50.211 87.3553 49.4829 87.0413 48.9368 86.4133C48.3908 85.7762 48.1177 84.8297 48.1177 83.5738C48.1177 82.3178 48.3908 81.3713 48.9368 80.7342C49.492 80.088 50.2246 79.765 51.1347 79.765C51.517 79.765 51.8492 79.815 52.1313 79.9151C52.4134 80.0061 52.6592 80.1335 52.8685 80.2974C53.0778 80.4612 53.2553 80.6432 53.4009 80.8434H53.4828C53.4737 80.7251 53.4555 80.5522 53.4282 80.3247C53.41 80.088 53.4009 79.9015 53.4009 79.765V76.8435H54.6023V87.2187H53.633L53.4555 86.2358H53.4009C53.2553 86.4452 53.0778 86.6363 52.8685 86.8092C52.6592 86.973 52.4089 87.105 52.1177 87.2051C51.8355 87.3052 51.5033 87.3553 51.1211 87.3553ZM51.3122 86.3587C52.0858 86.3587 52.6273 86.1494 52.9368 85.7307C53.2553 85.303 53.4146 84.6613 53.4146 83.8058V83.5874C53.4146 82.6773 53.2644 81.9811 52.9641 81.4987C52.6637 81.0073 52.1086 80.7615 51.2986 80.7615C50.6524 80.7615 50.1655 81.0209 49.8378 81.5397C49.5193 82.0493 49.36 82.7365 49.36 83.6011C49.36 84.4748 49.5193 85.1528 49.8378 85.6352C50.1655 86.1175 50.6569 86.3587 51.3122 86.3587Z" fill="black"/>
<path d="M44.0199 79.7651C44.8936 79.7651 45.5535 79.979 45.9994 80.4068C46.4454 80.8254 46.6683 81.508 46.6683 82.4545V87.2189H45.4806V82.5364C45.4806 81.9448 45.3487 81.5034 45.0848 81.2122C44.8208 80.921 44.4067 80.7754 43.8425 80.7754C43.0325 80.7754 42.4727 81.0029 42.1633 81.4579C41.8539 81.913 41.6991 82.5683 41.6991 83.4238V87.2189H40.4978V79.9017H41.4671L41.6445 80.8982H41.7128C41.8766 80.6434 42.0768 80.4341 42.3135 80.2702C42.5592 80.0973 42.8277 79.9699 43.1189 79.888C43.4102 79.8061 43.7105 79.7651 44.0199 79.7651Z" fill="black"/>
<path d="M36.0276 79.7651C36.6556 79.7651 37.1926 79.9017 37.6385 80.1747C38.0936 80.4477 38.4394 80.8345 38.676 81.3351C38.9218 81.8265 39.0446 82.4045 39.0446 83.0688V83.7924H34.0345C34.0527 84.6206 34.262 85.2531 34.6624 85.6899C35.072 86.1177 35.6408 86.3316 36.3689 86.3316C36.8331 86.3316 37.2426 86.2906 37.5975 86.2087C37.9616 86.1177 38.3347 85.9903 38.717 85.8265V86.8776C38.3438 87.0415 37.9752 87.1598 37.6112 87.2326C37.2472 87.3145 36.8149 87.3554 36.3143 87.3554C35.6226 87.3554 35.0083 87.2144 34.4713 86.9322C33.9435 86.6501 33.5294 86.2315 33.229 85.6763C32.9378 85.112 32.7922 84.4249 32.7922 83.6149C32.7922 82.814 32.9241 82.1269 33.1881 81.5535C33.4611 80.9801 33.8388 80.5387 34.3212 80.2293C34.8126 79.9199 35.3814 79.7651 36.0276 79.7651ZM36.014 80.7481C35.4406 80.7481 34.9855 80.9346 34.6488 81.3078C34.3212 81.6718 34.1255 82.1815 34.0618 82.8368H37.7887C37.7887 82.4181 37.725 82.0541 37.5975 81.7446C37.4701 81.4352 37.2745 81.194 37.0105 81.0211C36.7557 80.8391 36.4235 80.7481 36.014 80.7481Z" fill="black"/>
<path d="M31.1222 86.3722C31.3042 86.3722 31.4908 86.3585 31.6819 86.3312C31.873 86.2948 32.0277 86.2584 32.1461 86.222V87.1367C32.0186 87.2004 31.8366 87.2504 31.6 87.2869C31.3634 87.3324 31.1358 87.3551 30.9174 87.3551C30.5352 87.3551 30.1802 87.2914 29.8526 87.164C29.534 87.0275 29.2747 86.7954 29.0744 86.4678C28.8742 86.1401 28.7741 85.6805 28.7741 85.0889V80.8296H27.7366V80.2563L28.7877 79.7785L29.2656 78.2222H29.9754V79.9013H32.0914V80.8296H29.9754V85.0616C29.9754 85.5076 30.0801 85.8398 30.2894 86.0582C30.5079 86.2675 30.7854 86.3722 31.1222 86.3722Z" fill="black"/>
<path d="M24.1712 79.7651C25.0449 79.7651 25.7048 79.979 26.1507 80.4068C26.5967 80.8254 26.8196 81.508 26.8196 82.4545V87.2189H25.632V82.5364C25.632 81.9448 25.5 81.5034 25.2361 81.2122C24.9721 80.921 24.558 80.7754 23.9938 80.7754C23.1838 80.7754 22.624 81.0029 22.3146 81.4579C22.0052 81.913 21.8505 82.5683 21.8505 83.4238V87.2189H20.6491V79.9017H21.6184L21.7958 80.8982H21.8641C22.0279 80.6434 22.2281 80.4341 22.4648 80.2702C22.7105 80.0973 22.979 79.9699 23.2702 79.888C23.5615 79.8061 23.8618 79.7651 24.1712 79.7651Z" fill="black"/>
<path d="M19.1547 83.5466C19.1547 84.1564 19.0728 84.6979 18.909 85.1712C18.7542 85.6353 18.5267 86.0312 18.2264 86.3589C17.9351 86.6865 17.5757 86.9368 17.1479 87.1097C16.7293 87.2735 16.2605 87.3554 15.7418 87.3554C15.2594 87.3554 14.8135 87.2735 14.4039 87.1097C13.9944 86.9368 13.6394 86.6865 13.3391 86.3589C13.0388 86.0312 12.8021 85.6353 12.6292 85.1712C12.4654 84.6979 12.3835 84.1564 12.3835 83.5466C12.3835 82.7366 12.52 82.0541 12.793 81.4989C13.0661 80.9346 13.4574 80.5069 13.9671 80.2156C14.4767 79.9153 15.082 79.7651 15.7827 79.7651C16.4471 79.7651 17.0296 79.9153 17.5302 80.2156C18.0398 80.5069 18.4357 80.9346 18.7178 81.4989C19.0091 82.0541 19.1547 82.7366 19.1547 83.5466ZM13.6258 83.5466C13.6258 84.12 13.6986 84.6206 13.8442 85.0483C13.9989 85.467 14.2356 85.7901 14.5541 86.0176C14.8726 86.2451 15.2776 86.3589 15.7691 86.3589C16.2605 86.3589 16.6655 86.2451 16.9841 86.0176C17.3026 85.7901 17.5347 85.467 17.6803 85.0483C17.835 84.6206 17.9124 84.12 17.9124 83.5466C17.9124 82.9642 17.835 82.4682 17.6803 82.0586C17.5256 81.6491 17.289 81.3351 16.9704 81.1166C16.661 80.8891 16.256 80.7754 15.7554 80.7754C15.0091 80.7754 14.4676 81.0211 14.1309 81.5125C13.7942 82.004 13.6258 82.682 13.6258 83.5466Z" fill="black"/>
<path d="M11.2429 79.7651C11.3794 79.7651 11.525 79.7742 11.6797 79.7924C11.8435 79.8015 11.9846 79.8197 12.1029 79.847L11.9527 80.9528C11.8344 80.9255 11.7025 80.9028 11.5569 80.8846C11.4203 80.8664 11.2884 80.8573 11.161 80.8573C10.8788 80.8573 10.6103 80.9164 10.3555 81.0347C10.1007 81.1531 9.87315 81.3214 9.67293 81.5398C9.4727 81.7492 9.31343 82.004 9.19512 82.3043C9.08591 82.6047 9.0313 82.9414 9.0313 83.3146V87.2189H7.82996V79.9017H8.81287L8.94939 81.2395H9.004C9.15872 80.9665 9.34529 80.7208 9.56371 80.5023C9.78214 80.2748 10.0324 80.0973 10.3146 79.9699C10.5967 79.8334 10.9061 79.7651 11.2429 79.7651Z" fill="black"/>
<path d="M2.5528 87.2187H1.32416V77.4714H6.77116V78.5499H2.5528V82.0038H6.51178V83.0823H2.5528V87.2187Z" fill="black"/>
</svg>
