<svg width="276" height="276" viewBox="0 0 276 276" fill="none" xmlns="http://www.w3.org/2000/svg">
<path d="M0 0H276V276H0V0Z" fill="#151923"/>
<path d="M44.2307 105.269H106.25V167.289H44.2307V105.269Z" fill="#F5EF60"/>
<path d="M83.488 162.645V134.31H102.169V139.435H89.3V148.436H100.633V153.436H89.3V157.52H102.751V162.645H83.488Z" fill="#151923"/>
<path d="M65.4921 162.194V157.393H79.209V162.194H65.4921Z" fill="#151923"/>
<path d="M52.1289 154.036V148.579L57.1191 146.061L52.1289 143.542V138.086L66.0269 145.874V146.341L52.1289 154.036Z" fill="#151923"/>
<path d="M227.677 162.76V135.949H232.654V162.76H227.677Z" fill="#F5EF60"/>
<path d="M218.755 153.365C218.68 151.546 217.789 150.729 216.118 150.729C214.224 150.729 213.221 151.546 212.516 152.177L209.731 149.206C211.216 147.758 212.887 146.607 216.601 146.607C220.648 146.607 223.731 148.798 223.731 153.774V162.761H218.755L218.866 160.57C217.678 162.389 216.304 163.095 214.187 163.095C211.29 163.095 208.617 161.795 208.617 158.119C208.617 154.739 211.179 153.365 215.078 153.365H218.755ZM218.755 156.336H215.338C214.075 156.336 213.518 156.893 213.518 157.784C213.518 158.676 214.261 159.196 215.672 159.196C217.715 159.196 218.755 158.304 218.755 156.967V156.336Z" fill="#F5EF60"/>
<path d="M194.382 156.373C194.865 158.007 196.202 158.936 198.467 158.936C200.286 158.936 201.66 158.23 202.44 157.673L205.3 160.755C203.777 162.092 201.846 163.095 198.541 163.095C192.896 163.095 189.257 159.678 189.257 154.814C189.257 150.023 193.082 146.607 197.984 146.607C203.666 146.607 206.748 150.84 206.377 156.373H194.382ZM194.308 153.477H201.326C201.103 151.731 199.989 150.692 198.021 150.692C196.053 150.692 194.716 151.583 194.308 153.477Z" fill="#F5EF60"/>
<path d="M179.496 163.095L170.918 146.941H176.451L178.679 151.657C179.422 153.254 179.979 155.853 179.979 155.853C179.979 155.853 180.499 153.254 181.205 151.657L183.358 146.941H188.446L179.979 163.095H179.496Z" fill="#F5EF60"/>
<path d="M157.863 156.373C158.346 158.007 159.683 158.936 161.948 158.936C163.767 158.936 165.141 158.23 165.921 157.673L168.781 160.755C167.258 162.092 165.327 163.095 162.022 163.095C156.378 163.095 152.738 159.678 152.738 154.814C152.738 150.023 156.563 146.607 161.465 146.607C167.147 146.607 170.229 150.84 169.858 156.373H157.863ZM157.789 153.477H164.807C164.584 151.731 163.47 150.692 161.502 150.692C159.534 150.692 158.197 151.583 157.789 153.477Z" fill="#F5EF60"/>
<path d="M139.297 162.761V146.941H144.31L144.236 149.8C145.387 147.201 147.244 146.607 148.878 146.607C149.918 146.607 150.698 146.904 151.329 147.238L149.732 151.806C149.101 151.508 148.507 151.323 147.801 151.323C145.536 151.323 144.31 152.363 144.31 155.742V162.761H139.297Z" fill="#F5EF60"/>
<path d="M118.844 170.633V146.941H123.857L123.746 149.392C124.711 147.684 126.382 146.607 128.833 146.607C132.658 146.607 135.889 149.949 135.889 154.814C135.889 159.678 132.584 163.095 128.722 163.095C126.308 163.095 124.674 162.092 123.857 160.644V170.633H118.844ZM127.273 158.713C129.39 158.713 130.727 157.302 130.727 154.814C130.727 152.474 129.39 151.026 127.273 151.026C125.12 151.026 123.708 152.474 123.708 154.814C123.708 157.302 125.12 158.713 127.273 158.713Z" fill="#F5EF60"/>
<path d="M112.234 144.304C110.526 144.304 109.041 143.004 109.041 141.148C109.041 139.328 110.526 138.028 112.234 138.028C113.943 138.028 115.391 139.328 115.391 141.148C115.391 143.004 113.943 144.304 112.234 144.304ZM109.709 162.76V146.941H114.722V162.76H109.709Z" fill="#F5EF60"/>
</svg>
