<svg width="276" height="276" viewBox="0 0 276 276" fill="none" xmlns="http://www.w3.org/2000/svg">
<path d="M0 0H276V276H0V0Z" fill="#533ED3"/>
<path d="M218.135 129.121V131.182H220.196V149.727H218.135V151.787H216.075V153.848H199.59V151.787H197.529V149.727H195.469V131.182H197.529V135.303H199.59V133.242H201.651V131.182H197.529V129.121H205.772V131.182H207.832V145.606H211.953V131.182H214.014V129.121H218.135Z" fill="#90F577"/>
<path d="M189.279 139.424V141.485H191.34V145.606H189.279V147.666H187.218V151.788H185.158V153.848H178.976V151.788H176.916V147.666H166.613V145.606H164.552V143.545H162.491V127.061H164.552V131.182H166.613V129.121H168.673V127.061H164.552V125H172.794V127.061H174.855V139.424H176.916V127.061H178.976V125H185.158V127.061H187.218V139.424H189.279Z" fill="#90F577"/>
<path d="M156.32 129.121V131.182H158.38V143.545H156.32V145.606H154.259V147.666H152.199V149.727H150.138V151.787H148.078V153.848H137.775V151.787H135.714V149.727H133.653V131.182H135.714V135.303H137.775V133.242H139.835V131.182H135.714V129.121H143.956V131.182H146.017V143.545H148.078V141.485H150.138V131.182H152.199V129.121H156.32Z" fill="white"/>
<path d="M127.482 129.121V131.182H129.542V133.242H127.482V135.303H117.179V137.363H127.482V139.424H129.542V141.485H127.482V143.545H117.179V145.606H127.482V147.666H129.542V151.787H127.482V153.848H106.876V151.787H104.815V131.182H106.876V135.303H108.937V133.242H110.997V131.182H106.876V129.121H127.482Z" fill="white"/>
<path d="M98.6437 133.242V135.303H100.704V149.727H98.6437V151.787H96.5831V153.848H78.0379V151.787H75.9773V131.182H78.0379V135.303H80.0985V133.242H82.159V131.182H78.0379V129.121H94.5225V131.182H96.5831V133.242H98.6437ZM94.5225 137.363H92.4619V135.303H88.3408V145.606H92.4619V143.545H94.5225V137.363Z" fill="white"/>
<path d="M69.7875 127.061V129.121H71.8481V137.363H69.7875V139.424H67.727V141.485H57.4241V143.545H69.7875V145.606H71.8481V151.788H69.7875V153.848H45.0606V151.788H43V139.424H45.0606V137.363H47.1212V135.303H61.5452V133.242H45.0606V131.182H47.1212V129.121H49.1817V127.061H45.0606V125H67.727V127.061H69.7875ZM45.0606 127.061V131.182H43V127.061H45.0606Z" fill="white"/>
</svg>
