<svg width="276" height="276" viewBox="0 0 276 276" fill="none" xmlns="http://www.w3.org/2000/svg">
<path d="M0 0H276V276H0V0Z" fill="black"/>
<path d="M79 150.358V152.16H84.9093V155.512H87.7314V158.798H90.6993V161.647H96.5821V165.105H102.359V168.205H107.91V171.305H119.729V174.419H151.952V171.305H163.611V168.126H169.401V165.012H175.35V161.991H181.127V158.626H184.108V155.684H187.076V152.597H193.038V149.404H196.245V146.37H191.183V147.589H184.188V149.325H178.411V150.782H156.218V149.139H113.992V150.385L79 150.358Z" fill="#E10071"/>
<path opacity="0.64" d="M79.7552 155.512V157.34H85.6645V160.706H88.4734V163.978H91.4545V166.814H97.324V170.272H103.101V173.386H108.666V176.486H120.471V179.586H152.707V176.486H164.38V173.293H170.156V170.206H176.106V167.172H181.909V163.806H184.863V160.878H187.845V157.764H193.794V154.571H197V151.564H191.939V152.769H184.943V154.479H179.166V155.962H156.96V154.306H114.734V155.565L79.7552 155.512Z" fill="#6A6DFD"/>
<path d="M109.667 117.778V115.3H106.858H104.049V117.778V120.242V122.72V125.211H106.858H109.667H112.476H115.285V127.688H112.476H109.667H106.858H104.049V130.166V132.644V135.121V137.599H106.858H109.667V135.121H112.476V137.599H115.285V140.076H112.476H109.667H106.858H104.049H101.24H98.4313H95.6224V137.599H92.8135V135.121H90.0709V132.644H87.262V130.166V127.688V125.211V122.733H90.0709V120.255V117.778H92.8797V115.3H95.6886V117.778V120.255H92.8797V122.733V125.211V127.688V130.166V132.644H95.6886V135.121H98.4975V132.644V130.166V127.688V125.211V122.733V120.255V117.778V115.3V112.822H101.306H104.115H106.924H109.733H112.542V110.345H115.351V112.822V115.3H112.542V117.778H109.667ZM115.285 142.594V140.116H118.094V142.594H115.285Z" fill="white"/>
<path d="M144.195 142.594V140.116H141.386V137.639V135.161H138.577V132.683V130.192H135.768V127.715H132.959V125.224V122.746H130.124V125.224V127.701V130.179V132.657V135.134V137.612H132.933H135.742V140.09H132.933H130.124H127.368H124.559V142.581H127.368H130.177V145.058H127.368H124.559H121.75V142.581V140.103H124.559V137.625H127.368V135.148V132.697V130.219V127.741V125.277V122.799V120.308V117.831V115.353H124.559V112.875H121.75H118.942V110.398H121.75H124.559H127.368H130.177H132.986V112.875V115.353H135.795V117.831V120.308H138.604V122.786V125.264H141.413V127.741V130.219H144.222V127.741V125.264V122.786V120.308V117.831H141.413V115.353H138.604V112.875H141.413H144.222H147.03H149.839V110.398H152.648H155.457V112.875H152.648V115.353H149.839V117.831H147.03V120.308V122.786V125.264V127.741V130.219V132.697V135.174H149.839H152.648V137.652H149.839V140.13H147.03V142.62L144.195 142.594Z" fill="white"/>
<path d="M178.021 141.984H175.212H172.39H169.581H166.772H163.963H161.194H158.385H155.576V139.507H158.385V137.029H161.194V134.551H164.003V132.074H166.812V129.583H164.003H161.194V127.132H164.003H166.812H169.621V124.654H172.43V122.176V119.712V117.234H169.621H166.812H164.003H161.194H158.385V119.712H161.194H164.003V122.19H161.194H158.385V119.712H155.576V117.234H158.385V114.717H161.194V112.239H164.003H166.812H169.621H172.43H175.239H178.047H180.803V109.775H183.612H186.421V112.252H183.612V114.73H180.803V117.195V119.672H177.994V122.15V124.614H175.186V127.092H177.994H180.803V129.57H177.994H175.186H172.377V132.034H169.568V134.512H166.759V136.989H169.568H172.377H175.186H177.994H180.803H183.612V139.454H180.803V141.931H178.008L178.021 141.984ZM183.639 134.525H180.83H178.034V132.047H180.843H183.652V134.525H183.639ZM183.639 137.003V134.525H186.448V137.003H183.639Z" fill="white"/>
</svg>
